# Alias OBJ Model File
# Exported from SketchUp, (c) 2000-2012 Trimble Navigation Limited
# File units = meters

mtllib obj1.mtl

g Mesh1 Model

usemtl FrontColor
v 0.476934 1.80816 1.64
vt 18.7769 71.1876
vn 0 0 1
v 2.57693 1.80816 1.64
vt 101.454 71.1876
v 2.57693 2.84816 1.64
vt 101.454 112.132
v 0.476934 2.84816 1.64
vt 18.7769 112.132
f 1/1/1 2/2/1 3/3/1 4/4/1 

v 0.476934 2.46336 -4.7657e-16
vt -18.7769 35.9807
vn 0 -0.928633 -0.371
v 2.57693 2.46336 -4.7657e-16
vt -101.454 35.9807
vt -101.454 -33.5484
vt -18.7769 -33.5484
f 5/5/2 6/6/2 2/7/2 1/8/2 

vt -101.454 96.9829
vn 0 1.23849e-15 -1
vt -18.7769 96.9829
v 0.476934 2.84816 -8.81963e-31
vt -18.7769 112.132
v 2.57693 2.84816 -8.81963e-31
vt -101.454 112.132
f 6/9/3 5/10/3 7/11/3 8/12/3 

vt 64.5669 112.132
vn -1 0 -0
vt -3.47229e-29 112.132
vt -1.87626e-14 96.9829
vt 64.5669 71.1876
f 4/13/4 7/14/4 5/15/4 1/16/4 

vt 18.7769 -64.5669
vn 0 1 -2.20095e-16
vt 101.454 -64.5669
vt 101.454 -2.46798e-14
vt 18.7769 -2.46798e-14
f 4/17/5 3/18/5 8/19/5 7/20/5 

vt -64.5669 71.1876
vn 1 0 -0
vt 1.87626e-14 96.9829
vt 3.47229e-29 112.132
vt -64.5669 112.132
f 2/21/6 6/22/6 8/23/6 3/24/6 

g Mesh2 Model

v 0 3.51741 1.02166
vt 40.2227 138.481
v 0 2.96315 0.701657
vt 27.6243 116.659
v 0 2.40889 1.02166
vt 40.2227 94.8383
v 0 2.40889 1.66166
vt 65.4196 94.8383
v 0 2.96315 1.98166
vt 78.018 116.659
v 0 3.51741 1.66166
vt 65.4196 138.481
f 9/25/4 10/26/4 11/27/4 12/28/4 13/29/4 14/30/4 

vt 0 114.842
vn 0 0.5 -0.866025
vt 0 140.039
v 1.74 3.51741 1.02166
vt -68.5039 140.039
v 1.74 2.96315 0.701657
vt -68.5039 114.842
f 10/31/7 9/32/7 15/33/7 16/34/7 

vt 0 -40.2227
vn 0 1 -0
vt 0 -65.4196
v 1.74 3.51741 1.66166
vt 68.5039 -65.4196
vt 68.5039 -40.2227
f 9/35/8 14/36/8 17/37/8 15/38/8 

vt 0 87.2179
vn 0 0.5 0.866025
vt 0 62.021
v 1.74 2.96315 1.98166
vt 68.5039 62.021
vt 68.5039 87.2179
f 14/39/9 13/40/9 18/41/9 17/42/9 

vn 0 -0.5 0.866025
v 1.74 2.40889 1.66166
vt 68.5039 114.842
vt 68.5039 140.039
f 13/32/10 12/31/10 19/43/10 18/44/10 

vn 0 -1 5.63993e-16
v 1.74 2.40889 1.02166
vt -68.5039 -40.2227
vt -68.5039 -65.4196
f 12/36/11 11/35/11 20/45/11 19/46/11 

vn 0 -0.5 -0.866025
vt -68.5039 87.2179
vt -68.5039 62.021
f 11/40/12 10/39/12 16/47/12 20/48/12 

vt -27.6243 116.659
vt -40.2227 138.481
vt -65.4196 138.481
vt -78.018 116.659
vt -65.4196 94.8383
vt -40.2227 94.8383
f 16/49/6 15/50/6 17/51/6 18/52/6 19/53/6 20/54/6 

