# Alias OBJ Model File
# Exported from SketchUp, (c) 2000-2012 Trimble Navigation Limited
# File units = meters

mtllib obj2.mtl

g Mesh1 Model

usemtl FrontColor
v 1.18 1.67402 2.46333
vt 96.9815 65.9062
vn -1 0 -0
v 1.18 2.24313 2.65334
vt 104.462 88.3124
v 1.18 2.69225 2.25548
vt 88.7983 105.994
v 1.18 2.57224 1.6676
vt 65.6535 101.269
v 1.18 2.00313 1.47759
vt 58.1728 78.8632
v 1.18 1.55401 1.87545
vt 73.8367 61.1816
f 1/1/1 2/2/1 3/3/1 4/4/1 5/5/1 6/6/1 

vt 46.4567 116.849
vn 0 -0.316686 0.94853
vt 46.4567 93.2267
v 2.45 1.67402 2.46333
vt 96.4567 93.2267
v 2.45 2.24313 2.65334
vt 96.4567 116.849
f 2/7/2 1/8/2 7/9/2 8/10/2 

vt 46.4567 108.204
vn 0 -0.979794 0.200007
vt 46.4567 84.5816
v 2.45 1.55401 1.87545
vt 96.4567 84.5816
vt 96.4567 108.204
f 1/11/3 6/12/3 9/13/3 7/14/3 

vt -46.4567 -3.16591
vn 0 -0.663108 -0.748523
vt -46.4567 20.4561
v 2.45 2.00313 1.47759
vt -96.4567 20.4561
vt -96.4567 -3.16591
f 6/15/4 5/16/4 10/17/4 9/18/4 

vt -46.4567 93.2267
vn 0 0.316686 -0.94853
vt -46.4567 116.849
v 2.45 2.57224 1.6676
vt -96.4567 116.849
vt -96.4567 93.2267
f 5/19/5 4/20/5 11/21/5 10/22/5 

vt -46.4567 84.5816
vn 0 0.979794 -0.200007
vt -46.4567 108.204
v 2.45 2.69225 2.25548
vt -96.4567 108.204
vt -96.4567 84.5816
f 4/23/6 3/24/6 12/25/6 11/26/6 

vt 46.4567 20.4561
vn 0 0.663108 0.748523
vt 46.4567 -3.16591
vt 96.4567 -3.16591
vt 96.4567 20.4561
f 3/27/7 2/28/7 8/29/7 12/30/7 

vt -104.462 88.3124
vn 1 0 -0
vt -96.9815 65.9062
vt -73.8367 61.1816
vt -58.1728 78.8632
vt -65.6535 101.269
vt -88.7983 105.994
f 8/31/8 7/32/8 9/33/8 10/34/8 11/35/8 12/36/8 

g Mesh2 Model

v 2.00585 1.72599 2.67168
vt 78.9705 -105.184
vn 0 1 -0
v 2.70585 1.72599 2.67168
vt 106.53 -105.184
v 2.77513 1.72599 2.71168
vt 109.257 -106.759
v 3.12513 1.72599 2.10547
vt 123.037 -82.8923
v 3.05585 1.72599 2.06547
vt 120.309 -81.3175
v 2.70585 1.72599 1.45925
vt 106.53 -57.4507
v 2.00585 1.72599 1.45925
vt 78.9705 -57.4507
v 1.65585 1.72599 2.06547
vt 65.191 -81.3175
f 13/37/9 14/38/9 15/39/9 16/40/9 17/41/9 18/42/9 19/43/9 20/44/9 

vt 106.53 67.9525
vn 5.15651e-16 0 1
vt 78.9705 67.9525
v 2.00585 0.895994 2.67168
vt 78.9705 35.2754
v 2.70585 0.895994 2.67168
vt 106.53 35.2754
f 14/45/10 13/46/10 21/47/10 22/48/10 

vt 130.578 67.9525
vn -0.866025 0 0.5
vt 103.019 67.9525
v 1.65585 0.895994 2.06547
vt 103.019 35.2754
vt 130.578 35.2754
f 13/49/11 20/50/11 23/51/11 21/52/11 

vt 37.8275 67.9525
vn -0.866025 0 -0.5
vt 10.2685 67.9525
v 2.00585 0.895994 1.45925
vt 10.2685 35.2754
vt 37.8275 35.2754
f 20/53/12 19/54/12 24/55/12 23/56/12 

vt -78.9705 67.9525
vn -5.15651e-16 0 -1
vt -106.53 67.9525
v 2.70585 0.895994 1.45925
vt -106.53 35.2754
vt -78.9705 35.2754
f 19/57/13 18/58/13 25/59/13 24/60/13 

vt -103.019 67.9525
vn 0.866025 0 -0.5
vt -130.578 67.9525
v 3.05585 0.895994 2.06547
vt -130.578 35.2754
vt -103.019 35.2754
f 18/61/14 17/62/14 26/63/14 25/64/14 

vt -144.85 35.2754
vn 0.5 0 -0.866025
vt -144.85 67.9525
vt -147.999 67.9525
v 3.12513 0.895994 2.10547
vt -147.999 35.2754
f 26/65/15 17/66/15 16/67/15 27/68/15 

vt -10.2685 67.9525
vn 0.866025 0 0.5
vt -37.8275 67.9525
v 2.77513 0.895994 2.71168
vt -37.8275 35.2754
vt -10.2685 35.2754
f 16/69/16 15/70/16 28/71/16 27/72/16 

vt 144.85 67.9525
vn -0.5 0 0.866025
vt 144.85 35.2754
vt 147.999 35.2754
vt 147.999 67.9525
f 14/73/17 22/74/17 28/75/17 15/76/17 

vt -106.53 -105.184
vn 0 -1 -0
vt -78.9705 -105.184
vt -65.191 -81.3175
vt -78.9705 -57.4507
vt -106.53 -57.4507
vt -120.309 -81.3175
vt -123.037 -82.8923
vt -109.257 -106.759
f 22/77/18 21/78/18 23/79/18 24/80/18 25/81/18 26/82/18 27/83/18 28/84/18 

g Mesh3 Model

v 2.35585 1.81313 2.44547
vt 96.2782 -44.6324
vn -0.5 -0.866025 -0
v 2.08738 1.96813 2.44547
vt 96.2782 -32.4276
v 2.08738 1.96813 0.875465
vt 34.4671 -32.4276
v 2.35585 1.81313 0.875465
vt 34.4671 -44.6324
f 29/85/19 30/86/19 31/87/19 32/88/19 

vt 96.2782 77.4855
v 2.08738 2.27813 2.44547
vt 96.2782 89.6902
v 2.08738 2.27813 0.875465
vt 34.4671 89.6902
vt 34.4671 77.4855
f 30/89/1 33/90/1 34/91/1 31/92/1 

vt 96.2782 116.015
vn -0.5 0.866025 -0
v 2.35585 2.43313 2.44547
vt 96.2782 128.22
v 2.35585 2.43313 0.875465
vt 34.4671 128.22
vt 34.4671 116.015
f 33/93/20 35/94/20 36/95/20 34/96/20 

vt -96.2782 -32.4276
vn 0.5 0.866025 -0
v 2.62432 2.27813 2.44547
vt -96.2782 -44.6324
v 2.62432 2.27813 0.875465
vt -34.4671 -44.6324
vt -34.4671 -32.4276
f 35/97/21 37/98/21 38/99/21 36/100/21 

vt 103.32 -34.4671
vt 103.32 -96.2782
v 2.89432 2.27813 2.44547
vt 113.95 -96.2782
v 2.89432 2.27813 0.875465
vt 113.95 -34.4671
f 38/101/9 37/102/9 39/103/9 40/104/9 

vt -96.2782 89.6902
v 2.89432 1.96813 2.44547
vt -96.2782 77.4855
v 2.89432 1.96813 0.875465
vt -34.4671 77.4855
vt -34.4671 89.6902
f 39/105/8 41/106/8 42/107/8 40/108/8 

v 2.62432 1.96813 2.44547
vt -103.32 -96.2782
v 2.62432 1.96813 0.875465
vt -103.32 -34.4671
vt -113.95 -34.4671
vt -113.95 -96.2782
f 43/109/18 44/110/18 42/111/18 41/112/18 

vt -34.4671 15.4445
vn 0.866025 0.5 -0
vt -96.2782 15.4445
v 2.91932 1.45718 2.44547
vt -96.2782 -7.7838
v 2.91932 1.45718 0.875465
vt -34.4671 -7.7838
f 44/113/22 43/114/22 45/115/22 46/116/22 

vt 103.32 77.4855
vn 0 0 1
vt 92.7501 71.3831
v 2.65085 1.30218 2.44547
vt 104.364 51.2668
vt 114.934 57.3691
f 43/117/23 29/118/23 47/119/23 45/120/23 

vt 96.2782 15.4445
vn -0.866025 -0.5 -0
vt 34.4671 15.4445
v 2.65085 1.30218 0.875465
vt 34.4671 -7.7838
vt 96.2782 -7.7838
f 29/121/24 32/122/24 48/123/24 47/124/24 

vt -92.7501 71.3831
vn 0 0 -1
vt -103.32 77.4855
vt -114.934 57.3691
vt -104.364 51.2668
f 32/125/25 44/126/25 46/127/25 48/128/25 

vt -96.2782 128.22
vn 0.5 -0.866025 -0
vt -96.2782 116.015
vt -34.4671 116.015
vt -34.4671 128.22
f 45/129/26 47/130/26 48/131/26 46/132/26 

