# Alias OBJ Model File
# Exported from SketchUp, (c) 2000-2012 Trimble Navigation Limited
# File units = meters

mtllib obj3.mtl

g Mesh1 Model

usemtl FrontColor
v 1.40979 1.76363 -0
vt -55.5037 69.4344
vn 0 0 -1
v 1.36794 1.70909 -0
vt -53.856 67.287
v 1.27681 1.63917 -0
vt -50.2683 64.5341
v 1.1707 1.59521 -0
vt -46.0904 62.8035
v 1.05681 1.58022 -0
vt -41.6069 62.2133
v 0.942934 1.59521 -0
vt -37.1234 62.8035
v 0.836815 1.63917 -0
vt -32.9455 64.5341
v 0.745688 1.70909 -0
vt -29.3578 67.287
v 0.675764 1.80022 -0
vt -26.6049 70.8747
v 0.631807 1.90634 -0
vt -24.8743 75.0526
v 0.616815 2.02022 -0
vt -24.284 79.5361
v 0.631807 2.1341 -0
vt -24.8743 84.0196
v 0.675764 2.24022 -0
vt -26.6049 88.1975
v 0.745688 2.33134 -0
vt -29.3578 91.7852
v 0.836815 2.40127 -0
vt -32.9455 94.5381
v 0.942934 2.44522 -0
vt -37.1234 96.2687
v 1.05681 2.46022 -0
vt -41.6069 96.8589
v 1.1707 2.44522 -0
vt -46.0904 96.2687
v 1.27681 2.40127 -0
vt -50.2683 94.5381
v 1.36794 2.33134 -0
vt -53.856 91.7852
v 1.43524 2.24363 -0
vt -56.5057 88.332
v 1.40979 2.24363 -0
vt -55.5037 88.332
v 1.21013 2.24363 -0
vt -47.643 88.332
v 1.21013 1.76363 -0
vt -47.643 69.4344
f 1/1/1 2/2/1 3/3/1 4/4/1 5/5/1 6/6/1 7/7/1 8/8/1 9/9/1 10/10/1 11/11/1 12/12/1 13/13/1 14/14/1 15/15/1 16/16/1 17/17/1 18/18/1 19/19/1 20/20/1 21/21/1 22/22/1 23/23/1 24/24/1 

vt 0 86.1678
vn 0.707107 -0.707107 -0
vt 0 88.8746
vn 0.793353 -0.608761 -0
v 1.40979 1.76363 0.48
vt -18.8976 88.8746
v 1.36794 1.70909 0.48
vt -18.8976 86.1678
f 2/25/2 1/26/3 25/27/3 26/28/2 

vt -55.5037 0
vn 0 -1 -0
v 1.60494 1.76363 2.02679e-17
vt -63.1864 -7.97951e-16
v 2.49013 1.76363 -0
vt -98.0367 0
v 2.49013 1.76363 1.25
vt -98.0367 -49.2126
v 1.21013 1.76363 1.25
vt -47.643 -49.2126
v 1.21013 1.76363 0.48
vt -47.643 -18.8976
vt -55.5037 -18.8976
f 1/29/4 27/30/4 28/31/4 29/32/4 30/33/4 31/34/4 25/35/4 

vt -63.1864 69.4344
vn -8.25591e-19 -1.10852e-17 -1
v 1.43787 1.80022 -0
vt -56.6089 70.8747
v 1.48182 1.90634 -0
vt -58.3395 75.0526
v 1.49681 2.02022 -0
vt -58.9297 79.5361
v 1.48182 2.1341 -0
vt -58.3395 84.0196
v 1.43787 2.24022 -0
vt -56.6089 88.1975
v 2.49013 2.24363 -0
vt -98.0367 88.332
vt -98.0367 69.4344
f 27/36/5 1/1/5 32/37/5 33/38/5 34/39/5 35/40/5 36/41/5 21/21/5 37/42/5 28/43/5 

vt 56.6089 88.1975
vn 0 0 1
vt 56.5057 88.332
vt 55.5037 88.332
vt 55.5037 69.4344
vt 56.6089 70.8747
vt 58.3395 75.0526
vt 58.9297 79.5361
vt 58.3395 84.0196
f 36/44/6 21/45/6 22/46/6 1/47/6 32/48/6 33/49/6 34/50/6 35/51/6 

vt 55.5037 0
vn 0 1 -0
v 1.40979 2.24363 0.48
vt 55.5037 -18.8976
v 1.43524 2.24363 0.48
vt 56.5057 -18.8976
vt 56.5057 0
f 22/52/7 38/53/7 39/54/7 21/55/7 

vt 47.643 0
v 1.21013 2.24363 0.48
vt 47.643 -18.8976
f 22/52/7 23/56/7 40/57/7 38/53/7 

vt 47.643 69.4344
vt 47.643 88.332
f 24/58/6 1/47/6 22/46/6 23/59/6 

vt -47.643 0
f 24/60/4 1/29/4 25/35/4 31/34/4 

vt 53.856 67.287
v 1.36794 2.33134 0.48
vt 53.856 91.7852
v 1.27681 2.40127 0.48
vt 50.2683 94.5381
v 1.1707 2.44522 0.48
vt 46.0904 96.2687
v 1.05681 2.46022 0.48
vt 41.6069 96.8589
v 0.942934 2.44522 0.48
vt 37.1234 96.2687
v 0.836815 2.40127 0.48
vt 32.9455 94.5381
v 0.745688 2.33134 0.48
vt 29.3578 91.7852
v 0.675764 2.24022 0.48
vt 26.6049 88.1975
v 0.631807 2.1341 0.48
vt 24.8743 84.0196
v 0.616815 2.02022 0.48
vt 24.284 79.5361
v 0.631807 1.90634 0.48
vt 24.8743 75.0526
v 0.675764 1.80022 0.48
vt 26.6049 70.8747
v 0.745688 1.70909 0.48
vt 29.3578 67.287
v 0.836815 1.63917 0.48
vt 32.9455 64.5341
v 0.942934 1.59521 0.48
vt 37.1234 62.8035
v 1.05681 1.58022 0.48
vt 41.6069 62.2133
v 1.1707 1.59521 0.48
vt 46.0904 62.8035
v 1.27681 1.63917 0.48
vt 50.2683 64.5341
f 26/61/6 25/47/6 31/58/6 40/59/6 38/46/6 39/45/6 41/62/6 42/63/6 43/64/6 44/65/6 45/66/6 46/67/6 47/68/6 48/69/6 49/70/6 50/71/6 51/72/6 52/73/6 53/74/6 54/75/6 55/76/6 56/77/6 57/78/6 58/79/6 

vt 18.8976 69.4344
vn -1 0 -0
vt 49.2126 69.4344
v 1.21013 2.24363 1.25
vt 49.2126 88.332
vt 18.8976 88.332
f 31/80/8 30/81/8 59/82/8 40/83/8 

vt 98.0367 69.4344
v 2.49013 2.24363 1.25
vt 98.0367 88.332
v 1.85013 2.24363 1.25
vt 72.8398 88.332
f 30/58/6 29/84/6 60/85/6 61/86/6 59/59/6 

vt -49.2126 69.4344
vn 1 0 -0
vt 0 69.4344
vt 0 88.332
vt -49.2126 88.332
f 29/87/9 28/88/9 37/89/9 60/90/9 

vt 98.0367 0
vt 47.643 -49.2126
vt 72.8398 -49.2126
vt 98.0367 -49.2126
f 37/91/7 21/55/7 39/54/7 38/53/7 40/57/7 59/92/7 61/93/7 60/94/7 

vt 0 35.6801
vn 0.793353 0.608761 -0
vt 0 40.0327
vn 0.707107 0.707107 -0
vt -18.8976 40.0327
vt -18.8976 35.6801
f 21/95/10 20/96/11 41/97/11 39/98/10 

vt 0 13.1485
vt 0 17.6706
vn 0.5 0.866025 -0
vt -18.8976 17.6706
vt -18.8976 13.1485
f 20/99/11 19/100/12 42/101/12 41/102/11 

vt 0 -10.2637
vt 0 -5.74151
vn 0.258819 0.965926 -0
vt -18.8976 -5.74151
vt -18.8976 -10.2637
f 19/103/12 18/104/13 43/105/13 42/106/12 

vt 0 -33.1305
vt 0 -28.6083
vn 9.79828e-17 1 -0
vt -18.8976 -28.6083
vt -18.8976 -33.1305
f 18/107/13 17/108/14 44/109/14 43/110/13 

vt 0 53.8936
vt 0 49.3714
vn -0.258819 0.965926 -0
vt 18.8976 49.3714
vt 18.8976 53.8936
f 17/111/14 16/112/15 45/113/15 44/114/14 

vt 0 71.138
vt 0 66.6158
vn -0.5 0.866025 -0
vt 18.8976 66.6158
vt 18.8976 71.138
f 16/115/15 15/116/16 46/117/16 45/118/15 

vt 0 83.6886
vt 0 79.1664
vn -0.707107 0.707107 -0
vt 18.8976 79.1664
vt 18.8976 83.6886
f 15/119/16 14/120/17 47/121/17 46/122/16 

vt 0 90.69
vn -0.866025 0.5 -0
vt 18.8976 86.1678
vt 18.8976 90.69
f 14/123/17 13/25/18 48/124/18 47/125/17 

vt 0 91.6651
vt 0 87.143
vn -0.965926 0.258819 -0
vt 18.8976 87.143
vt 18.8976 91.6651
f 13/126/18 12/127/19 49/128/19 48/129/18 

vt 0 86.5475
vt 0 82.0254
vn -1 -1.95966e-16 -0
vt 18.8976 82.0254
vt 18.8976 86.5475
f 12/130/19 11/131/20 50/132/20 49/133/19 

vt 0 75.686
vt 0 71.1638
vn -0.965926 -0.258819 -0
vt 18.8976 71.1638
vt 18.8976 75.686
f 11/134/20 10/135/21 51/136/21 50/137/20 

vt 0 59.8206
vt 0 55.2984
vn -0.866025 -0.5 -0
vt 18.8976 55.2984
vt 18.8976 59.8206
f 10/138/21 9/139/22 52/140/22 51/141/21 

vt 0 35.5105
vn -0.707107 -0.707107 -0
vt 18.8976 35.5105
vt 18.8976 40.0327
f 9/96/22 8/142/23 53/143/23 52/144/22 

vn -0.5 -0.866025 -0
vt 18.8976 13.1485
vt 18.8976 17.6706
f 8/100/23 7/99/24 54/145/24 53/146/23 

vn -0.258819 -0.965926 -0
vt 18.8976 -10.2637
vt 18.8976 -5.74151
f 7/104/24 6/103/25 55/147/25 54/148/24 

vn 3.63936e-16 -1 -0
vt 18.8976 -33.1305
vt 18.8976 -28.6083
f 6/108/25 5/107/26 56/149/26 55/150/25 

vn 0.258819 -0.965926 -0
vt -18.8976 53.8936
vt -18.8976 49.3714
f 5/112/26 4/111/27 57/151/27 56/152/26 

vn 0.5 -0.866025 -0
vt -18.8976 71.138
vt -18.8976 66.6158
f 4/116/27 3/115/28 58/153/28 57/154/27 

vt -18.8976 83.6886
vt -18.8976 79.1664
f 3/120/28 2/119/2 26/155/2 58/156/28 

v 1.85013 2.00483 1.96097
vt 72.8398 -48.0542
vn -6.31286e-16 0.947957 0.318399
v 2.95585 2.00483 1.96097
vt 116.372 -48.0542
v 2.95585 2.24363 1.25
vt 116.372 -18.5266
vt 98.0367 -18.5266
vt 72.8398 -18.5266
f 62/157/29 63/158/29 64/159/29 60/160/29 61/161/29 

vt 116.372 99.4042
vn 3.09692e-17 -0.318399 0.947957
vt 72.8398 99.4042
v 1.85013 -0.238799 1.20738
vt 72.8398 6.2227
v 2.95585 -0.238799 1.20738
vt 116.372 6.2227
f 63/162/30 62/163/30 65/164/30 66/165/30 

v 1.85013 0 0.49641
vt 19.5437 0
vt 47.5346 -9.40154
vt 77.2034 78.9305
f 61/82/8 67/166/8 65/167/8 62/168/8 

vt -72.8398 99.4042
vn -3.09692e-17 0.318399 -0.947957
vt -98.0367 99.4042
vt -116.372 99.4042
v 2.95585 0 0.49641
vt -116.372 6.2227
vt -72.8398 6.2227
f 61/169/31 60/170/31 64/171/31 68/172/31 67/173/31 

vt -19.5437 0
vt -77.2034 78.9305
vt -47.5346 -9.40154
f 68/174/9 64/90/9 63/175/9 66/176/9 

vt -72.8398 -18.5266
vn 0 -0.947957 -0.318399
vt -116.372 -18.5266
vt -116.372 -48.0542
vt -72.8398 -48.0542
f 67/177/32 68/178/32 66/179/32 65/180/32 

f 23/89/8 24/88/8 31/80/8 40/83/8 

g Mesh2 Model

v 0.474829 1.59521 0.468106
vt -18.694 -18.4294
v 0.369624 1.59521 0.331001
vt -14.5521 -13.0315
v 0.350556 1.59521 0.284965
vt -13.8014 -11.2191
v 0.30349 1.59521 0.171339
vt -11.9484 -6.74561
v 0.280933 1.59521 -1.21608e-16
vt -11.0604 4.7877e-15
v 0.30349 1.59521 -0.171339
vt -11.9484 6.74561
v 0.369624 1.59521 -0.331001
vt -14.5521 13.0315
v 0.474829 1.59521 -0.468106
vt -18.694 18.4294
v 0.611934 1.59521 -0.57331
vt -24.0919 22.5713
v 0.771596 1.59521 -0.639444
vt -30.3778 25.175
v 0.942934 1.59521 -0.662001
vt -37.1234 26.063
v 1.11427 1.59521 -0.639444
vt -43.869 25.175
v 1.27394 1.59521 -0.57331
vt -50.1549 22.5713
v 1.41104 1.59521 -0.468106
vt -55.5528 18.4294
v 1.51624 1.59521 -0.331001
vt -59.6947 13.0315
v 1.58238 1.59521 -0.171339
vt -62.2984 6.74561
v 1.60494 1.59521 4.05359e-17
vt -63.1864 -1.5959e-15
v 1.58238 1.59521 0.171339
vt -62.2984 -6.74561
v 1.51624 1.59521 0.331001
vt -59.6947 -13.0315
v 1.41104 1.59521 0.468106
vt -55.5528 -18.4294
v 1.27394 1.59521 0.57331
vt -50.1549 -22.5713
v 1.11427 1.59521 0.639444
vt -43.869 -25.175
v 0.942934 1.59521 0.662001
vt -37.1234 -26.063
v 0.771596 1.59521 0.639444
vt -30.3778 -25.175
v 0.611934 1.59521 0.57331
vt -24.0919 -22.5713
f 69/181/4 70/182/4 71/183/4 72/184/4 73/185/4 74/186/4 75/187/4 76/188/4 77/189/4 78/190/4 79/191/4 80/192/4 81/193/4 82/194/4 83/195/4 84/196/4 85/197/4 86/198/4 87/199/4 88/200/4 89/201/4 90/202/4 91/203/4 92/204/4 93/205/4 

vt 19.1974 62.8035
vn -0.866025 -2.15446e-16 0.5
vt 26.0012 62.8035
vn -0.707107 0 0.707107
v 0.474829 2.00521 0.468106
vt 26.0012 78.9453
v 0.369624 2.00521 0.331001
vt 19.1974 78.9453
f 70/206/33 69/207/34 94/208/34 95/209/33 

vt 26.0501 62.8035
vt 32.8539 62.8035
vn -0.5 0 0.866025
v 0.611934 2.00521 0.57331
vt 32.8539 78.9453
vt 26.0501 78.9453
f 69/210/34 93/211/35 96/212/35 94/213/34 

vt 30.8956 62.8035
vt 37.6995 62.8035
vn -0.258819 0 0.965926
v 0.771596 2.00521 0.639444
vt 37.6995 78.9453
vt 30.8956 78.9453
f 93/214/35 92/215/36 97/216/36 96/217/35 

vt 33.4039 62.8035
vt 40.2077 62.8035
vn -2.79951e-16 0 1
v 0.942934 2.00521 0.662001
vt 40.2077 78.9453
vt 33.4039 78.9453
f 92/218/36 91/219/37 98/220/37 97/221/36 

vn 0.258819 0 0.965926
v 1.11427 2.00521 0.639444
f 91/218/37 90/219/38 99/220/38 98/221/37 

vn 0.5 0 0.866025
v 1.27394 2.00521 0.57331
f 90/214/38 89/215/39 100/216/39 99/217/38 

vn 0.707107 0 0.707107
v 1.41104 2.00521 0.468106
f 89/210/39 88/211/40 101/212/40 100/213/39 

vn 0.866025 0 0.5
v 1.51624 2.00521 0.331001
f 88/206/40 87/207/41 102/208/41 101/209/40 

vt 10.8046 62.8035
vt 17.6084 62.8035
vn 0.965926 -2.48392e-19 0.258819
v 1.58238 2.00521 0.171339
vt 17.6084 78.9453
vt 10.8046 78.9453
f 87/222/41 86/223/42 103/224/42 102/225/41 

vt 1.44367 62.8035
vt 8.24749 62.8035
vn 1 9.93569e-19 4.47921e-16
vt 8.24749 69.4344
v 1.60494 2.00521 4.05359e-17
vt 8.24749 78.9453
vt 1.44367 78.9453
f 86/226/42 85/227/43 27/228/43 104/229/43 103/230/42 

vt -8.24749 62.8035
vt -1.44367 62.8035
vn 0.965926 1.24196e-18 -0.258819
v 1.58238 2.00521 -0.171339
vt -1.44367 78.9453
vt -8.24749 78.9453
vt -8.24749 69.4344
f 85/231/43 84/232/44 105/233/44 104/234/43 27/235/43 

vt -17.6084 62.8035
vt -10.8046 62.8035
vn 0.866025 0 -0.5
v 1.51624 2.00521 -0.331001
vt -10.8046 78.9453
vt -17.6084 78.9453
f 84/236/44 83/237/45 106/238/45 105/239/44 

vt -26.0012 62.8035
vt -19.1974 62.8035
vn 0.707107 0 -0.707107
v 1.41104 2.00521 -0.468106
vt -19.1974 78.9453
vt -26.0012 78.9453
f 83/240/45 82/241/46 107/242/46 106/243/45 

vt -32.8539 62.8035
vt -26.0501 62.8035
vn 0.5 0 -0.866025
v 1.27394 2.00521 -0.57331
vt -26.0501 78.9453
vt -32.8539 78.9453
f 82/244/46 81/245/47 108/246/47 107/247/46 

vt -37.6995 62.8035
vt -30.8956 62.8035
vn 0.258819 0 -0.965926
v 1.11427 2.00521 -0.639444
vt -30.8956 78.9453
vt -37.6995 78.9453
f 81/248/47 80/249/48 109/250/48 108/251/47 

vt -40.2077 62.8035
vt -33.4039 62.8035
vn 3.63936e-16 0 -1
v 0.942934 2.00521 -0.662001
vt -33.4039 78.9453
vt -40.2077 78.9453
f 80/252/48 79/253/49 110/254/49 109/255/48 

vn -0.258819 0 -0.965926
v 0.771596 2.00521 -0.639444
f 79/252/49 78/253/50 111/254/50 110/255/49 

vn -0.5 0 -0.866025
v 0.611934 2.00521 -0.57331
f 78/248/50 77/249/51 112/250/51 111/251/50 

vn -0.707107 0 -0.707107
v 0.474829 2.00521 -0.468106
f 77/244/51 76/245/52 113/246/52 112/247/51 

vn -0.866025 0 -0.5
v 0.369624 2.00521 -0.331001
f 76/240/52 75/241/53 114/242/53 113/243/52 

vn -0.965926 0 -0.258819
v 0.30349 2.00521 -0.171339
f 75/236/53 74/237/54 115/238/54 114/239/53 

vn -1 0 -5.45904e-16
v 0.280933 2.00521 -1.21608e-16
f 74/231/54 73/232/55 116/233/55 115/234/54 

vn -0.965926 -2.15446e-16 0.258819
v 0.30349 2.00521 0.171339
f 73/226/55 72/227/56 117/229/56 116/230/55 

vt 15.6467 62.8035
vn -0.92388 -4.27205e-16 0.382683
f 72/222/56 71/256/57 70/223/33 95/224/33 117/225/56 

vt 14.5521 -13.0315
vt 18.694 -18.4294
vt 24.0919 -22.5713
vt 30.3778 -25.175
vt 37.1234 -26.063
vt 43.869 -25.175
vt 50.1549 -22.5713
vt 55.5528 -18.4294
vt 59.6947 -13.0315
vt 62.2984 -6.74561
vt 63.1864 -1.5959e-15
vt 62.2984 6.74561
vt 59.6947 13.0315
vt 55.5528 18.4294
vt 50.1549 22.5713
vt 43.869 25.175
vt 37.1234 26.063
vt 30.3778 25.175
vt 24.0919 22.5713
vt 18.694 18.4294
vt 14.5521 13.0315
vt 11.9484 6.74561
vt 11.0604 4.7877e-15
vt 11.9484 -6.74561
f 95/257/7 94/258/7 96/259/7 97/260/7 98/261/7 99/262/7 100/263/7 101/264/7 102/265/7 103/266/7 104/267/7 105/268/7 106/269/7 107/270/7 108/271/7 109/272/7 110/273/7 111/274/7 112/275/7 113/276/7 114/277/7 115/278/7 116/279/7 117/280/7 

