# Alias OBJ Model File
# Exported from SketchUp, (c) 2000-2012 Trimble Navigation Limited
# File units = meters

mtllib obj4.mtl

g Mesh1 Model

usemtl FrontColor
v -1.19879 0 -3.70645
vt 47.1966 145.923
vn 0 -1 -0
v -0.791935 0 -3.17413
vt 31.1785 124.966
v -0.579611 0 -3.08571
vt 22.8193 121.484
v -0.837186 0 -2.4672
vt 32.9601 97.1337
v -1.04951 0 -2.55562
vt 41.3193 100.615
v -1.16271 0 -3.42831
vt 45.7761 134.973
v -1.82715 0 -3.34212
vt 71.9349 131.579
v -1.71394 0 -2.46943
vt 67.4781 97.2216
v -2.1208 0 -3.00175
vt 83.4961 118.179
v -1.86323 0 -3.62026
vt 73.3554 142.53
f 1/1/1 2/2/1 3/3/1 4/4/1 5/5/1 6/6/1 7/7/1 8/8/1 9/9/1 10/10/1 

vt 118.22 3.60554e-16
vn 0.79451 -7.05393e-18 -0.607251
vt 144.598 3.60554e-16
v -1.19879 0.01 -3.70645
vt 144.598 0.393701
v -1.04951 0.01 -3.51113
vt 134.919 0.393701
v -1.04951 1.17 -3.51113
vt 134.919 46.063
v -0.791935 1.17 -3.17413
vt 118.22 46.063
f 2/11/2 1/12/2 11/13/2 12/14/2 13/15/2 14/16/2 

vt 28.0329 8.54557e-16
vn -0.12864 -5.6675e-18 -0.991691
vt 54.4109 8.54557e-16
v -1.86323 1.17 -3.62026
vt 54.4109 46.063
v -1.45637 1.17 -3.67304
vt 38.2586 46.063
v -1.45637 0.01 -3.67304
vt 38.2586 0.393701
vt 28.0329 0.393701
f 1/17/3 10/18/3 15/19/3 16/20/3 17/21/3 11/22/3 

vt -103.376 0
vn -0.92315 0 -0.38444
vt -76.9978 0
v -2.1208 1.17 -3.00175
vt -76.9978 46.063
vt -103.376 46.063
f 10/23/4 9/24/4 18/25/4 15/26/4 

vt -144.598 0
vn -0.79451 0 0.607251
vt -118.22 0
v -1.71394 1.17 -2.46943
vt -118.22 46.063
vt -144.598 46.063
f 9/27/5 8/28/5 19/29/5 18/30/5 

vt 105.094 46.063
vn 0.991691 0 -0.12864
vt 105.094 0
vt 139.74 0
v -1.82715 1.17 -3.34212
vt 139.74 46.063
f 19/31/6 8/32/6 7/33/6 20/34/6 

vt -54.4109 -1.09349e-14
vn 0.12864 -7.82518e-17 0.991691
vt -28.0329 -1.09349e-14
v -1.16271 1.17 -3.42831
vt -28.0329 46.063
v -1.45637 1.17 -3.39021
vt -39.691 46.063
vt -54.4109 46.063
f 7/35/7 6/36/7 21/37/7 22/38/7 20/39/7 

vt -105.094 0
vn -0.991691 0 0.12864
v -1.04951 1.17 -2.55562
vt -105.094 46.063
vt -139.74 46.063
vt -139.74 0
f 5/40/8 23/41/8 21/42/8 6/43/8 

vt -76.8243 46.063
vn -0.38444 0 0.92315
vt -76.8243 0
vt -67.7692 0
v -0.837186 1.17 -2.4672
vt -67.7692 46.063
f 23/44/9 5/45/9 4/46/9 24/47/9 

vt 76.9978 0
vn 0.92315 0 0.38444
vt 103.376 0
v -0.579611 1.17 -3.08571
vt 103.376 46.063
vt 76.9978 46.063
f 4/48/10 3/49/10 25/50/10 24/51/10 

vt 76.8243 0
vn 0.38444 0 -0.92315
vt 76.8243 46.063
vt 67.7692 46.063
vt 67.7692 0
f 2/52/11 14/53/11 25/54/11 3/55/11 

vt -31.1785 124.966
vn 0 1 -0
vt -41.3193 138.234
vt -41.3193 100.615
vt -32.9601 97.1337
vt -22.8193 121.484
f 14/56/12 13/57/12 23/58/12 24/59/12 25/60/12 

vt -45.7761 134.973
v -1.19879 1.17 -3.70645
vt -47.1966 145.923
vt -57.3373 144.608
vt -57.3373 133.473
f 21/61/12 23/58/12 13/57/12 26/62/12 16/63/12 22/64/12 

v -1.45637 1.17 -2.55562
vt 57.3373 100.615
vt 57.3373 133.473
f 23/5/1 27/65/1 22/66/1 21/6/1 

vt -57.3373 46.063
vn 0 0 1
vt -41.3193 46.063
v -1.04951 1.7 -2.55562
vt -41.3193 66.9291
v -1.45637 1.7 -2.55562
vt -57.3373 66.9291
f 27/67/13 23/68/13 28/69/13 29/70/13 

v -1.16271 1.7 -3.42831
vt 139.74 66.9291
vt 105.094 66.9291
f 23/31/6 21/34/6 30/71/6 28/72/6 

vt 28.0329 46.063
vn -0.12864 0 -0.991691
vt 39.691 46.063
v -1.45637 1.7 -3.39021
vt 39.691 66.9291
vt 28.0329 66.9291
f 21/73/14 22/74/14 31/75/14 30/76/14 

vt -133.473 46.063
vn -1 0 -0
vt -100.615 46.063
vt -100.615 66.9291
vt -133.473 66.9291
f 22/77/15 27/78/15 29/79/15 31/80/15 

vt -57.3373 100.615
f 29/81/12 28/58/12 30/61/12 31/64/12 

v -1.45637 1.17 -3.94978
vt -57.3373 155.503
v -1.04951 1.17 -3.94978
vt -41.3193 155.503
f 32/82/12 16/63/12 26/62/12 13/57/12 33/83/12 

vt -144.608 46.063
vt -155.503 46.063
v -1.45637 0.01 -3.94978
vt -155.503 0.393701
vt -144.608 0.393701
f 16/84/15 32/85/15 34/86/15 17/87/15 

vt 57.3373 46.063
vn 0 0 -1
vt 41.3193 46.063
v -1.04951 0.01 -3.94978
vt 41.3193 0.393701
vt 57.3373 0.393701
f 32/88/16 33/89/16 35/90/16 34/91/16 

vt 155.503 46.063
vn 1 0 -0
vt 138.234 46.063
vt 138.234 0.393701
vt 155.503 0.393701
f 33/92/17 13/93/17 12/94/17 35/95/17 

vt 144.598 46.063
vn 0.79451 0 -0.607251
f 26/96/18 13/15/18 12/14/18 11/13/18 

vt 57.3373 144.608
vt 57.3373 155.503
vt 41.3193 155.503
vt 41.3193 138.234
f 17/97/1 34/98/1 35/99/1 12/100/1 11/1/1 

vn -0.12864 4.80107e-32 -0.991691
f 16/20/19 26/73/19 11/22/19 17/21/19 

vt -71.9349 131.579
vt -73.3554 142.53
vt -83.4961 118.179
vt -67.4781 97.2216
f 20/101/12 22/64/12 16/63/12 15/102/12 18/103/12 19/104/12 

